<?xml version="1.0" encoding="UTF-8"?>
<!DOCTYPE svg PUBLIC "-//W3C//DTD SVG 1.1//EN" "http://www.w3.org/Graphics/SVG/1.1/DTD/svg11.dtd">
<svg xmlns="http://www.w3.org/2000/svg" version="1.1" width="1920px" height="491px" style="shape-rendering:geometricPrecision; text-rendering:geometricPrecision; image-rendering:optimizeQuality; fill-rule:evenodd; clip-rule:evenodd" xmlns:xlink="http://www.w3.org/1999/xlink">
<g><path style="opacity:0.29" fill="#713a0c" d="M 1202.5,96.5 C 1125,97.4993 1047.34,97.8326 969.5,97.5C 974.9,96.8131 980.4,96.1464 986,95.5C 1060.12,96.2103 1132.29,96.5436 1202.5,96.5 Z"/></g>
<g><path style="opacity:0.29" fill="#6d380c" d="M 1266.5,96.5 C 1245.5,97.8333 1224.5,97.8333 1203.5,96.5C 1225.13,95.4182 1246.13,95.4182 1266.5,96.5 Z"/></g>
<g><path style="opacity:0.29" fill="#763d0c" d="M 1291.5,96.5 C 1283.5,97.8333 1275.5,97.8333 1267.5,96.5C 1275.29,95.607 1283.29,95.607 1291.5,96.5 Z"/></g>
<g><path style="opacity:0.29" fill="#6d390c" d="M 1353.5,96.5 C 1333.35,97.7782 1313.35,97.7782 1293.5,96.5C 1313.22,95.5518 1333.22,95.5518 1353.5,96.5 Z"/></g>
<g><path style="opacity:0.785" fill="#d86b00" d="M 1360.5,96.5 C 1391.17,97.8333 1421.83,97.8333 1452.5,96.5C 1546.6,97.8317 1640.6,97.8317 1734.5,96.5C 1736.05,95.2801 1737.72,95.2801 1739.5,96.5C 1750.83,97.8333 1762.17,97.8333 1773.5,96.5C 1777,96.2456 1779.67,97.9123 1781.5,101.5C 1779.57,101.271 1777.9,100.438 1776.5,99C 1508.17,98.3333 1239.83,98.3333 971.5,99C 965.157,99.8352 958.824,100.669 952.5,101.5C 953.5,100.833 954.5,100.167 955.5,99.5C 960.036,98.1892 964.703,97.5226 969.5,97.5C 1047.34,97.8326 1125,97.4993 1202.5,96.5C 1202.83,96.5 1203.17,96.5 1203.5,96.5C 1224.5,97.8333 1245.5,97.8333 1266.5,96.5C 1266.83,96.5 1267.17,96.5 1267.5,96.5C 1275.5,97.8333 1283.5,97.8333 1291.5,96.5C 1292.17,96.5 1292.83,96.5 1293.5,96.5C 1313.35,97.7782 1333.35,97.7782 1353.5,96.5C 1356.08,95.7365 1358.41,95.7365 1360.5,96.5 Z"/></g>
<g><path style="opacity:0.29" fill="#783e0b" d="M 1773.5,96.5 C 1762.17,97.8333 1750.83,97.8333 1739.5,96.5C 1750.85,95.7955 1762.19,95.7955 1773.5,96.5 Z"/></g>
<g><path style="opacity:0.29" fill="#713a0c" d="M 1452.5,96.5 C 1546.55,95.934 1640.55,95.934 1734.5,96.5C 1640.6,97.8317 1546.6,97.8317 1452.5,96.5 Z"/></g>
<g><path style="opacity:0.29" fill="#703a0c" d="M 1452.5,96.5 C 1421.83,97.8333 1391.17,97.8333 1360.5,96.5C 1389.19,95.8514 1419.85,95.8514 1452.5,96.5 Z"/></g>
<g><path style="opacity:1" fill="#ef7700" d="M 1781.5,101.5 C 1781.52,104.179 1782.86,105.512 1785.5,105.5C 1785.5,106.167 1785.5,106.833 1785.5,107.5C 1522.84,109.333 1259.84,110.166 996.5,110C 991.481,110.335 986.481,110.835 981.5,111.5C 979.97,111.64 978.97,112.307 978.5,113.5C 967.521,114.203 957.021,116.87 947,121.5C 945.69,122.13 944.856,123.13 944.5,124.5C 942.801,124.34 941.134,124.506 939.5,125C 933.605,128.738 927.605,132.238 921.5,135.5C 921.5,136.5 921.5,137.5 921.5,138.5C 920.833,138.833 920.167,139.167 919.5,139.5C 917.801,139.34 916.134,139.506 914.5,140C 915.252,140.671 915.586,141.504 915.5,142.5C 911.5,147.167 907.167,151.5 902.5,155.5C 901.178,155.67 900.011,155.337 899,154.5C 898.383,155.449 898.549,156.282 899.5,157C 889.506,157.5 879.506,157.666 869.5,157.5C 869.5,156.5 869.5,155.5 869.5,154.5C 871.587,153.415 872.92,151.749 873.5,149.5C 875.912,149.306 876.912,147.973 876.5,145.5C 878.5,142.833 880.833,140.5 883.5,138.5C 889.632,133.731 895.965,129.231 902.5,125C 903.305,123.887 903.972,122.721 904.5,121.5C 905.873,121.657 907.207,121.49 908.5,121C 911.519,119.115 914.519,117.115 917.5,115C 919.345,113.872 921.345,113.372 923.5,113.5C 923.5,112.5 923.5,111.5 923.5,110.5C 928.375,110.631 932.375,108.964 935.5,105.5C 940.165,104.943 944.498,103.61 948.5,101.5C 949.833,101.5 951.167,101.5 952.5,101.5C 958.824,100.669 965.157,99.8352 971.5,99C 1239.83,98.3333 1508.17,98.3333 1776.5,99C 1777.9,100.438 1779.57,101.271 1781.5,101.5 Z"/></g>
<g><path style="opacity:0.255" fill="#653007" d="M 955.5,99.5 C 954.5,100.167 953.5,100.833 952.5,101.5C 951.167,101.5 949.833,101.5 948.5,101.5C 950.515,100.076 952.848,99.4095 955.5,99.5 Z"/></g>
<g><path style="opacity:0.345" fill="#844105" d="M 948.5,101.5 C 944.498,103.61 940.165,104.943 935.5,105.5C 939.502,103.39 943.835,102.057 948.5,101.5 Z"/></g>
<g><path style="opacity:0.741" fill="#89440a" d="M 1781.5,101.5 C 1783.17,102.5 1784.5,103.833 1785.5,105.5C 1782.86,105.512 1781.52,104.179 1781.5,101.5 Z"/></g>
<g><path style="opacity:0.514" fill="#a35104" d="M 935.5,105.5 C 932.375,108.964 928.375,110.631 923.5,110.5C 927.203,108.321 931.203,106.655 935.5,105.5 Z"/></g>
<g><path style="opacity:0.843" fill="#e06f00" d="M 1785.5,107.5 C 1786.27,108.172 1786.93,109.005 1787.5,110C 1524.83,110.333 1262.17,110.667 999.5,111C 996.964,111.186 994.631,111.686 992.5,112.5C 988.158,112.739 983.824,113.073 979.5,113.5C 979.167,113.5 978.833,113.5 978.5,113.5C 978.97,112.307 979.97,111.64 981.5,111.5C 986.481,110.835 991.481,110.335 996.5,110C 1259.84,110.166 1522.84,109.333 1785.5,107.5 Z"/></g>
<g><path style="opacity:0.353" fill="#81410c" d="M 1785.5,105.5 C 1788.34,106.995 1789.34,109.161 1788.5,112C 1523.17,112.5 1257.83,112.667 992.5,112.5C 994.631,111.686 996.964,111.186 999.5,111C 1262.17,110.667 1524.83,110.333 1787.5,110C 1786.93,109.005 1786.27,108.172 1785.5,107.5C 1785.5,106.833 1785.5,106.167 1785.5,105.5 Z"/></g>
<g><path style="opacity:0.584" fill="#944807" d="M 978.5,113.5 C 978.833,113.5 979.167,113.5 979.5,113.5C 967.584,116.068 955.917,119.735 944.5,124.5C 944.856,123.13 945.69,122.13 947,121.5C 957.021,116.87 967.521,114.203 978.5,113.5 Z"/></g>
<g><path style="opacity:0.89" fill="#b75a04" d="M 923.5,110.5 C 923.5,111.5 923.5,112.5 923.5,113.5C 921.345,113.372 919.345,113.872 917.5,115C 914.519,117.115 911.519,119.115 908.5,121C 907.207,121.49 905.873,121.657 904.5,121.5C 910.052,116.644 916.385,112.977 923.5,110.5 Z"/></g>
<g><path style="opacity:0.965" fill="#b45704" d="M 904.5,121.5 C 903.972,122.721 903.305,123.887 902.5,125C 895.965,129.231 889.632,133.731 883.5,138.5C 889.575,131.637 896.575,125.97 904.5,121.5 Z"/></g>
<g><path style="opacity:0.427" fill="#904607" d="M 944.5,124.5 C 936.369,128.399 928.703,133.066 921.5,138.5C 921.5,137.5 921.5,136.5 921.5,135.5C 927.605,132.238 933.605,128.738 939.5,125C 941.134,124.506 942.801,124.34 944.5,124.5 Z"/></g>
<g><path style="opacity:0.986" fill="#9c4b08" d="M 919.5,139.5 C 918.738,141.262 917.404,142.262 915.5,142.5C 915.586,141.504 915.252,140.671 914.5,140C 916.134,139.506 917.801,139.34 919.5,139.5 Z"/></g>
<g><path style="opacity:0.675" fill="#984707" d="M 876.5,145.5 C 876.912,147.973 875.912,149.306 873.5,149.5C 873.738,147.596 874.738,146.262 876.5,145.5 Z"/></g>
<g><path style="opacity:0.275" fill="#763e06" d="M 873.5,149.5 C 872.92,151.749 871.587,153.415 869.5,154.5C 870.08,152.251 871.413,150.585 873.5,149.5 Z"/></g>
<g><path style="opacity:0.173" fill="#924801" d="M 869.5,154.5 C 869.5,155.5 869.5,156.5 869.5,157.5C 879.506,157.666 889.506,157.5 899.5,157C 898.549,156.282 898.383,155.449 899,154.5C 900.011,155.337 901.178,155.67 902.5,155.5C 902.047,156.458 901.381,157.292 900.5,158C 889.505,158.5 878.505,158.667 867.5,158.5C 867.229,156.62 867.896,155.287 869.5,154.5 Z"/></g>
<g><path style="opacity:0.071" fill="#652f00" d="M 247.5,170.5 C 207.33,170.168 167.33,170.501 127.5,171.5C 127.5,214.833 127.5,258.167 127.5,301.5C 127.5,301.833 127.5,302.167 127.5,302.5C 126.501,258.336 126.168,214.003 126.5,169.5C 167.003,169.168 207.337,169.501 247.5,170.5 Z"/></g>
<g><path style="opacity:0.071" fill="#5c2a00" d="M 308.5,170.5 C 353.33,169.501 398.33,169.168 443.5,169.5C 443.826,178.017 443.493,186.35 442.5,194.5C 442.5,194.167 442.5,193.833 442.5,193.5C 442.5,193.167 442.5,192.833 442.5,192.5C 442.5,185.5 442.5,178.5 442.5,171.5C 398.003,170.501 353.336,170.168 308.5,170.5 Z"/></g>
<g><path style="opacity:0.067" fill="#3f3f3f" d="M 1667.5,170.5 C 1653.82,170.167 1640.15,170.501 1626.5,171.5C 1627.13,172.417 1627.46,173.417 1627.5,174.5C 1625.79,173.365 1625.12,171.698 1625.5,169.5C 1639.68,169.171 1653.68,169.504 1667.5,170.5 Z"/></g>
<g><path style="opacity:0.071" fill="#414141" d="M 1755.5,170.5 C 1767.66,169.505 1779.99,169.171 1792.5,169.5C 1792.74,170.791 1792.4,171.791 1791.5,172.5C 1779.88,170.521 1767.88,169.854 1755.5,170.5 Z"/></g>
<g><path style="opacity:0.539" fill="#cc6401" d="M 127.5,171.5 C 167.33,170.501 207.33,170.168 247.5,170.5C 253.395,170.569 258.395,172.569 262.5,176.5C 257.685,174.507 252.685,173.007 247.5,172C 207.501,171.5 167.501,171.333 127.5,171.5 Z"/></g>
<g><path style="opacity:0.54" fill="#d96b00" d="M 308.5,170.5 C 353.336,170.168 398.003,170.501 442.5,171.5C 398.167,171.5 353.833,171.5 309.5,171.5C 309.5,178.5 309.5,185.5 309.5,192.5C 353.833,192.5 398.167,192.5 442.5,192.5C 442.5,192.833 442.5,193.167 442.5,193.5C 397.833,193.5 353.167,193.5 308.5,193.5C 308.5,185.833 308.5,178.167 308.5,170.5 Z"/></g>
<g><path style="opacity:0.54" fill="#d86a00" d="M 495.5,170.5 C 496.167,170.5 496.833,170.5 497.5,170.5C 528.005,170.169 558.338,170.502 588.5,171.5C 558.498,171.333 528.498,171.5 498.5,172C 495.522,172.696 492.522,173.196 489.5,173.5C 491.5,172.5 493.5,171.5 495.5,170.5 Z"/></g>
<g><path style="opacity:0.539" fill="#d46900" d="M 648.5,171.5 C 688.33,170.501 728.33,170.168 768.5,170.5C 771.495,170.294 774.162,170.96 776.5,172.5C 733.847,171.545 691.18,171.211 648.5,171.5 Z"/></g>
<g><path style="opacity:0.54" fill="#777777" d="M 1107.5,180.5 C 1105.34,178.15 1102.84,177.483 1100,178.5C 1100.15,177.175 1099.98,176.008 1099.5,175C 1095.58,173.687 1091.58,172.687 1087.5,172C 1059.5,171.333 1031.5,171.333 1003.5,172C 996.389,173.426 990.055,176.259 984.5,180.5C 987.27,175.425 991.604,172.258 997.5,171C 1013.46,169.881 1029.46,169.381 1045.5,169.5C 1061.87,169.389 1078.2,169.889 1094.5,171C 1100.4,172.258 1104.73,175.425 1107.5,180.5 Z"/></g>
<g><path style="opacity:0.534" fill="#767676" d="M 1435.5,173.5 C 1431.44,173.515 1427.44,173.015 1423.5,172C 1389.83,171.333 1356.17,171.333 1322.5,172C 1318.21,172.923 1313.88,173.423 1309.5,173.5C 1312.8,171.583 1316.47,170.416 1320.5,170C 1354.83,169.333 1389.17,169.333 1423.5,170C 1427.89,170.259 1431.89,171.426 1435.5,173.5 Z"/></g>
<g><path style="opacity:1" fill="#ee7600" d="M 127.5,171.5 C 167.501,171.333 207.501,171.5 247.5,172C 252.685,173.007 257.685,174.507 262.5,176.5C 264.543,177.579 265.876,179.246 266.5,181.5C 266.41,184.152 267.076,186.485 268.5,188.5C 269.833,203.833 269.833,219.167 268.5,234.5C 267.076,236.515 266.41,238.848 266.5,241.5C 265.92,243.749 264.587,245.415 262.5,246.5C 257.685,248.493 252.685,249.993 247.5,251C 239.147,251.168 230.813,251.668 222.5,252.5C 222.624,253.107 222.957,253.44 223.5,253.5C 224.391,254.11 225.391,254.443 226.5,254.5C 228.222,257.84 230.055,261.173 232,264.5C 232.333,263.833 232.667,263.167 233,262.5C 234.725,263.464 236.559,264.131 238.5,264.5C 239.455,266.746 240.122,269.079 240.5,271.5C 243.167,271.833 245.833,272.167 248.5,272.5C 248.021,276.021 248.021,279.521 248.5,283C 250.905,283.281 250.905,282.615 248.5,281C 250.274,280.119 250.94,278.953 250.5,277.5C 251.833,278.167 253.167,278.833 254.5,279.5C 255.149,281.624 255.983,283.624 257,285.5C 259.288,285.263 261.788,285.263 264.5,285.5C 265.974,287.979 266.974,290.646 267.5,293.5C 271.856,293.183 274.522,295.183 275.5,299.5C 262.134,300.797 248.801,300.797 235.5,299.5C 234.527,297.7 233.527,295.866 232.5,294C 233.449,293.383 234.282,293.549 235,294.5C 235.711,290.502 234.711,289.835 232,292.5C 229.237,291.711 226.403,290.378 223.5,288.5C 220.614,286.366 217.947,284.032 215.5,281.5C 215.512,278.858 214.179,277.525 211.5,277.5C 208.5,275.167 205.833,272.5 203.5,269.5C 202.965,267.554 201.632,266.554 199.5,266.5C 199.512,263.858 198.179,262.525 195.5,262.5C 192.5,260.167 189.833,257.5 187.5,254.5C 187.027,253.094 186.027,252.427 184.5,252.5C 184.512,249.858 183.179,248.525 180.5,248.5C 177.5,246.167 174.833,243.5 172.5,240.5C 171.738,238.738 170.404,237.738 168.5,237.5C 168.512,234.858 167.179,233.525 164.5,233.5C 164.461,232.417 164.127,231.417 163.5,230.5C 185.996,229.833 208.33,229.167 230.5,228.5C 234.318,228.023 236.818,226.023 238,222.5C 238.77,214.452 238.603,206.452 237.5,198.5C 237.67,197.178 237.337,196.011 236.5,195C 233.518,194.502 230.518,194.335 227.5,194.5C 204.339,193.502 181.006,193.169 157.5,193.5C 156.502,229.329 156.168,265.329 156.5,301.5C 146.833,301.5 137.167,301.5 127.5,301.5C 127.5,258.167 127.5,214.833 127.5,171.5 Z"/></g>
<g><path style="opacity:0.999" fill="#f07700" d="M 442.5,171.5 C 442.5,178.5 442.5,185.5 442.5,192.5C 398.167,192.5 353.833,192.5 309.5,192.5C 309.5,185.5 309.5,178.5 309.5,171.5C 353.833,171.5 398.167,171.5 442.5,171.5 Z"/></g>
<g><path style="opacity:0.31" fill="#7b3c06" d="M 495.5,170.5 C 493.5,171.5 491.5,172.5 489.5,173.5C 488.167,173.5 486.833,173.5 485.5,173.5C 488.505,171.723 491.838,170.723 495.5,170.5 Z"/></g>
<g><path style="opacity:1" fill="#ee7500" d="M 588.5,171.5 C 596.4,173.054 603.733,176.054 610.5,180.5C 611.908,184.686 612.575,189.019 612.5,193.5C 575.33,193.168 538.33,193.502 501.5,194.5C 501.5,203.5 501.5,212.5 501.5,221.5C 531.664,222.332 561.997,222.832 592.5,223C 596.44,224.015 600.44,224.515 604.5,224.5C 604.833,224.5 605.167,224.5 605.5,224.5C 606.035,226.446 607.368,227.446 609.5,227.5C 609.427,229.027 610.094,230.027 611.5,230.5C 612.674,231.514 613.34,232.847 613.5,234.5C 613.41,237.152 614.076,239.485 615.5,241.5C 615.5,242.167 615.5,242.833 615.5,243.5C 615.667,255.505 615.5,267.505 615,279.5C 612.927,282.509 611.593,285.842 611,289.5C 610.667,288.833 610.333,288.167 610,287.5C 609.506,289.134 609.34,290.801 609.5,292.5C 608.167,292.5 606.833,292.5 605.5,292.5C 605.5,294.167 605.5,295.833 605.5,297.5C 601.99,297.853 598.99,299.186 596.5,301.5C 561.165,301.667 525.832,301.5 490.5,301C 487.074,299.347 483.407,298.513 479.5,298.5C 478.73,296.065 477.063,294.731 474.5,294.5C 474.545,291.923 473.545,289.923 471.5,288.5C 470.029,285.257 469.029,281.757 468.5,278C 468.57,277.235 468.903,276.735 469.5,276.5C 509.167,276.5 548.833,276.5 588.5,276.5C 588.5,266.833 588.5,257.167 588.5,247.5C 561.336,246.668 534.003,246.168 506.5,246C 500.126,245.689 493.793,245.023 487.5,244C 486.022,241.961 484.022,241.128 481.5,241.5C 480.5,241.167 479.833,240.5 479.5,239.5C 478.041,235.954 476.874,232.288 476,228.5C 475.617,227.944 475.117,227.611 474.5,227.5C 473.988,221.184 473.654,214.85 473.5,208.5C 473.346,201.602 474.013,194.936 475.5,188.5C 477.585,186.316 478.585,183.649 478.5,180.5C 481.423,178.849 483.757,176.516 485.5,173.5C 486.833,173.5 488.167,173.5 489.5,173.5C 492.522,173.196 495.522,172.696 498.5,172C 528.498,171.5 558.498,171.333 588.5,171.5 Z"/></g>
<g><path style="opacity:1" fill="#ef7600" d="M 648.5,171.5 C 691.18,171.211 733.847,171.545 776.5,172.5C 778.046,174.931 780.379,176.264 783.5,176.5C 783.738,178.404 784.738,179.738 786.5,180.5C 788.328,183.135 789.495,186.135 790,189.5C 790.827,204.006 790.661,218.339 789.5,232.5C 788.076,234.515 787.41,236.848 787.5,239.5C 786.753,242.362 785.086,244.362 782.5,245.5C 778.832,246.556 775.165,247.722 771.5,249C 740.182,250.308 708.848,250.808 677.5,250.5C 677.5,267.5 677.5,284.5 677.5,301.5C 667.833,301.5 658.167,301.5 648.5,301.5C 648.5,258.167 648.5,214.833 648.5,171.5 Z M 680.5,194.5 C 700.961,194.829 721.628,194.829 742.5,194.5C 746.5,195 750.5,195.5 754.5,196C 756.324,196.66 757.657,197.827 758.5,199.5C 759.423,206.109 759.756,212.776 759.5,219.5C 759.5,219.833 759.5,220.167 759.5,220.5C 758.115,224.661 755.115,226.661 750.5,226.5C 726.833,226.5 703.167,226.5 679.5,226.5C 679.191,215.752 679.524,205.085 680.5,194.5 Z"/></g>
<g><path style="opacity:1" fill="#eb7400" d="M 893.5,178.5 C 893.427,180.027 894.094,181.027 895.5,181.5C 896.674,182.514 897.34,183.847 897.5,185.5C 897.427,187.027 898.094,188.027 899.5,188.5C 900.338,188.842 900.672,189.508 900.5,190.5C 900.427,192.027 901.094,193.027 902.5,193.5C 904.417,196.331 906.083,199.331 907.5,202.5C 907.241,204.989 908.241,206.656 910.5,207.5C 911.674,208.514 912.34,209.847 912.5,211.5C 912.427,213.027 913.094,214.027 914.5,214.5C 915.674,215.514 916.34,216.847 916.5,218.5C 916.427,220.027 917.094,221.027 918.5,221.5C 919.674,222.514 920.34,223.847 920.5,225.5C 920.427,227.027 921.094,228.027 922.5,228.5C 923.674,229.514 924.34,230.847 924.5,232.5C 924.427,234.027 925.094,235.027 926.5,235.5C 926.241,237.989 927.241,239.656 929.5,240.5C 933.337,246.17 936.67,252.17 939.5,258.5C 939.427,260.027 940.094,261.027 941.5,261.5C 942.674,262.514 943.34,263.847 943.5,265.5C 943.427,267.027 944.094,268.027 945.5,268.5C 946.674,269.514 947.34,270.847 947.5,272.5C 947.427,274.027 948.094,275.027 949.5,275.5C 950.674,276.514 951.34,277.847 951.5,279.5C 951.427,281.027 952.094,282.027 953.5,282.5C 954.674,283.514 955.34,284.847 955.5,286.5C 955.427,288.027 956.094,289.027 957.5,289.5C 958.674,290.514 959.34,291.847 959.5,293.5C 959.427,295.027 960.094,296.027 961.5,296.5C 961.286,298.144 961.62,299.644 962.5,301C 950.323,302.076 938.323,301.576 926.5,299.5C 925.633,296.107 925.466,292.773 926,289.5C 925.439,290.022 924.772,290.355 924,290.5C 922.923,289.571 921.756,288.904 920.5,288.5C 919.227,286.287 918.227,283.954 917.5,281.5C 915.49,275.466 912.49,270.133 908.5,265.5C 907.662,265.158 907.328,264.492 907.5,263.5C 907.715,261.821 907.048,260.821 905.5,260.5C 905.5,260.167 905.5,259.833 905.5,259.5C 905.715,257.821 905.048,256.821 903.5,256.5C 901.82,253.14 900.153,249.807 898.5,246.5C 898.715,244.821 898.048,243.821 896.5,243.5C 896.5,243.167 896.5,242.833 896.5,242.5C 896.715,240.821 896.048,239.821 894.5,239.5C 894.5,239.167 894.5,238.833 894.5,238.5C 894.715,236.821 894.048,235.821 892.5,235.5C 890.992,233.819 889.992,231.819 889.5,229.5C 889.715,227.821 889.048,226.821 887.5,226.5C 885.895,223.622 884.561,220.622 883.5,217.5C 883.511,213.687 881.845,211.02 878.5,209.5C 877.167,206.833 875.833,204.167 874.5,201.5C 874.5,200.5 874.5,199.5 874.5,198.5C 872.473,198.338 870.473,198.505 868.5,199C 869.973,199.71 870.64,200.876 870.5,202.5C 869.071,205.696 867.405,208.696 865.5,211.5C 864.094,211.973 863.427,212.973 863.5,214.5C 862.258,218.655 860.258,222.322 857.5,225.5C 855.09,225.921 853.257,227.254 852,229.5C 851.748,227.622 851.081,225.622 850,223.5C 848.832,226.893 849.666,229.559 852.5,231.5C 851.167,232.167 849.833,232.833 848.5,233.5C 848.833,234.167 849.167,234.833 849.5,235.5C 849.154,236.696 848.654,236.696 848,235.5C 847.502,238.482 847.335,241.482 847.5,244.5C 847.672,245.492 847.338,246.158 846.5,246.5C 845.833,246.5 845.5,246.833 845.5,247.5C 844.957,247.56 844.624,247.893 844.5,248.5C 860.563,249.181 876.563,249.848 892.5,250.5C 893.674,251.514 894.34,252.847 894.5,254.5C 894.427,256.027 895.094,257.027 896.5,257.5C 899.072,261.639 901.405,265.973 903.5,270.5C 903.5,271.5 903.5,272.5 903.5,273.5C 878.81,272.843 854.477,273.51 830.5,275.5C 827.005,283.161 823.005,290.495 818.5,297.5C 817.099,297.971 815.766,298.638 814.5,299.5C 814.709,300.086 815.043,300.586 815.5,301C 805.839,301.5 796.172,301.666 786.5,301.5C 786.629,299.784 786.962,298.117 787.5,296.5C 789.931,294.954 791.264,292.621 791.5,289.5C 793.931,287.954 795.264,285.621 795.5,282.5C 799.998,278.188 802.998,272.855 804.5,266.5C 806.931,264.954 808.264,262.621 808.5,259.5C 811.415,257.349 813.082,254.349 813.5,250.5C 815.931,248.954 817.264,246.621 817.5,243.5C 819.931,241.954 821.264,239.621 821.5,236.5C 823.931,234.954 825.264,232.621 825.5,229.5C 828.415,227.349 830.082,224.349 830.5,220.5C 832.931,218.954 834.264,216.621 834.5,213.5C 836.931,211.954 838.264,209.621 838.5,206.5C 841.415,204.349 843.082,201.349 843.5,197.5C 845.931,195.954 847.264,193.621 847.5,190.5C 849.931,188.954 851.264,186.621 851.5,183.5C 853.931,181.954 855.264,179.621 855.5,176.5C 856.086,174.16 857.086,171.993 858.5,170C 868.849,169.168 879.183,169.334 889.5,170.5C 891.372,172.91 892.705,175.577 893.5,178.5 Z"/></g>
<g><path style="opacity:1" fill="#a7a7a7" d="M 1285.5,170.5 C 1285.5,178.5 1285.5,186.5 1285.5,194.5C 1265.5,194.5 1245.5,194.5 1225.5,194.5C 1225.5,230.5 1225.5,266.5 1225.5,302.5C 1215.5,303.833 1205.5,303.833 1195.5,302.5C 1195.5,266.5 1195.5,230.5 1195.5,194.5C 1175.5,194.5 1155.5,194.5 1135.5,194.5C 1135.5,186.5 1135.5,178.5 1135.5,170.5C 1185.5,170.5 1235.5,170.5 1285.5,170.5 Z"/></g>
<g><path style="opacity:1" fill="#a5a5a5" d="M 1435.5,173.5 C 1438.2,173.933 1440.36,175.266 1442,177.5C 1444.66,181.814 1446.33,186.481 1447,191.5C 1447.67,221.167 1447.67,250.833 1447,280.5C 1446.15,292.849 1439.65,299.849 1427.5,301.5C 1394.83,301.667 1362.16,301.5 1329.5,301C 1324.65,300.62 1319.82,300.12 1315,299.5C 1311.24,297.703 1307.4,296.037 1303.5,294.5C 1300.15,289.799 1298.32,284.466 1298,278.5C 1297.33,250.5 1297.33,222.5 1298,194.5C 1298.31,189.226 1299.65,184.226 1302,179.5C 1303.79,176.532 1306.29,174.532 1309.5,173.5C 1313.88,173.423 1318.21,172.923 1322.5,172C 1356.17,171.333 1389.83,171.333 1423.5,172C 1427.44,173.015 1431.44,173.515 1435.5,173.5 Z M 1330.5,195.5 C 1358.83,195.5 1387.17,195.5 1415.5,195.5C 1415.5,222.167 1415.5,248.833 1415.5,275.5C 1387.17,275.5 1358.83,275.5 1330.5,275.5C 1330.5,248.833 1330.5,222.167 1330.5,195.5 Z"/></g>
<g><path style="opacity:0.672" fill="#5e5e5e" d="M 1609.5,175.5 C 1604.92,174.045 1600.25,172.878 1595.5,172C 1555.83,171.5 1516.17,171.333 1476.5,171.5C 1476.5,214.833 1476.5,258.167 1476.5,301.5C 1486.17,301.5 1495.83,301.5 1505.5,301.5C 1505.5,265.833 1505.5,230.167 1505.5,194.5C 1505.83,194.5 1506.17,194.5 1506.5,194.5C 1506.83,230.74 1506.5,266.906 1505.5,303C 1495.26,303.819 1485.09,303.652 1475,302.5C 1474.33,258.5 1474.33,214.5 1475,170.5C 1515.1,169.337 1555.26,169.17 1595.5,170C 1600.93,170.193 1605.6,172.026 1609.5,175.5 Z"/></g>
<g><path style="opacity:1" fill="#a6a6a6" d="M 1609.5,175.5 C 1612.92,176.973 1614.92,179.639 1615.5,183.5C 1617.08,203.213 1616.74,222.879 1614.5,242.5C 1613.88,244.754 1612.54,246.421 1610.5,247.5C 1605.6,248.962 1600.6,250.129 1595.5,251C 1587.15,251.168 1578.81,251.668 1570.5,252.5C 1571.77,253.362 1573.1,254.029 1574.5,254.5C 1594.03,269.444 1613.03,285.111 1631.5,301.5C 1631.29,302.086 1630.96,302.586 1630.5,303C 1616.17,303.667 1601.83,303.667 1587.5,303C 1583.33,299.998 1579.67,296.498 1576.5,292.5C 1575.42,290.413 1573.75,289.08 1571.5,288.5C 1550.87,270.203 1530.87,251.203 1511.5,231.5C 1534.14,229.675 1557.14,228.841 1580.5,229C 1581.42,228.722 1582.08,228.222 1582.5,227.5C 1584.59,226.415 1585.92,224.749 1586.5,222.5C 1587.66,214.677 1587.82,206.677 1587,198.5C 1586.58,197.244 1585.75,196.577 1584.5,196.5C 1584.2,195.85 1583.86,195.183 1583.5,194.5C 1557.34,193.171 1531.34,193.171 1505.5,194.5C 1505.5,230.167 1505.5,265.833 1505.5,301.5C 1495.83,301.5 1486.17,301.5 1476.5,301.5C 1476.5,258.167 1476.5,214.833 1476.5,171.5C 1516.17,171.333 1555.83,171.5 1595.5,172C 1600.25,172.878 1604.92,174.045 1609.5,175.5 Z"/></g>
<g><path style="opacity:1" fill="#a0a0a0" d="M 1667.5,170.5 C 1678.18,181.844 1688.51,193.511 1698.5,205.5C 1699.07,208.407 1700.74,210.407 1703.5,211.5C 1705.96,213.461 1708.3,215.628 1710.5,218C 1711.17,218.667 1711.83,218.667 1712.5,218C 1721,207.671 1730,197.838 1739.5,188.5C 1741.59,187.415 1742.92,185.749 1743.5,183.5C 1747.28,178.935 1751.28,174.602 1755.5,170.5C 1767.88,169.854 1779.88,170.521 1791.5,172.5C 1769.87,195.964 1748.04,219.297 1726,242.5C 1725.83,262.74 1725.33,282.906 1724.5,303C 1713.92,303.819 1703.42,303.652 1693,302.5C 1692.67,282.833 1692.33,263.167 1692,243.5C 1691.28,242.956 1690.78,242.289 1690.5,241.5C 1690.5,239.5 1689.5,238.5 1687.5,238.5C 1678.47,229.468 1669.8,220.134 1661.5,210.5C 1659.92,207.248 1657.92,204.248 1655.5,201.5C 1654.58,200.873 1653.58,200.539 1652.5,200.5C 1644.18,191.875 1635.84,183.209 1627.5,174.5C 1627.46,173.417 1627.13,172.417 1626.5,171.5C 1640.15,170.501 1653.82,170.167 1667.5,170.5 Z"/></g>
<g><path style="opacity:0.604" fill="#8a4204" d="M 497.5,170.5 C 528.331,169.336 559.331,169.169 590.5,170C 596.229,170.432 601.562,172.098 606.5,175C 608.464,176.451 609.797,178.284 610.5,180.5C 603.733,176.054 596.4,173.054 588.5,171.5C 558.338,170.502 528.005,170.169 497.5,170.5 Z"/></g>
<g><path style="opacity:0.675" fill="#884309" d="M 776.5,172.5 C 779.326,172.998 781.66,174.331 783.5,176.5C 780.379,176.264 778.046,174.931 776.5,172.5 Z"/></g>
<g><path style="opacity:0.867" fill="#a45003" d="M 485.5,173.5 C 483.757,176.516 481.423,178.849 478.5,180.5C 479.833,177.167 482.167,174.833 485.5,173.5 Z"/></g>
<g><path style="opacity:0.329" fill="#703806" d="M 783.5,176.5 C 785.262,177.262 786.262,178.596 786.5,180.5C 784.738,179.738 783.738,178.404 783.5,176.5 Z"/></g>
<g><path style="opacity:0.808" fill="#964a05" d="M 855.5,176.5 C 855.264,179.621 853.931,181.954 851.5,183.5C 852.079,180.669 853.412,178.336 855.5,176.5 Z"/></g>
<g><path style="opacity:0.11" fill="#603105" d="M 893.5,178.5 C 894.906,178.973 895.573,179.973 895.5,181.5C 894.094,181.027 893.427,180.027 893.5,178.5 Z"/></g>
<g><path style="opacity:0.886" fill="#954903" d="M 478.5,180.5 C 478.585,183.649 477.585,186.316 475.5,188.5C 475.415,185.351 476.415,182.684 478.5,180.5 Z"/></g>
<g><path style="opacity:0.514" fill="#713706" d="M 266.5,181.5 C 267.924,183.515 268.59,185.848 268.5,188.5C 267.076,186.485 266.41,184.152 266.5,181.5 Z"/></g>
<g><path style="opacity:0.129" fill="#383838" d="M 1743.5,183.5 C 1742.92,185.749 1741.59,187.415 1739.5,188.5C 1740.08,186.251 1741.41,184.585 1743.5,183.5 Z"/></g>
<g><path style="opacity:0.788" fill="#914706" d="M 851.5,183.5 C 851.264,186.621 849.931,188.954 847.5,190.5C 848.079,187.669 849.412,185.336 851.5,183.5 Z"/></g>
<g><path style="opacity:0.106" fill="#623205" d="M 897.5,185.5 C 898.906,185.973 899.573,186.973 899.5,188.5C 898.094,188.027 897.427,187.027 897.5,185.5 Z"/></g>
<g><path style="opacity:0.067" fill="#4f2805" d="M 900.5,190.5 C 901.906,190.973 902.573,191.973 902.5,193.5C 901.094,193.027 900.427,192.027 900.5,190.5 Z"/></g>
<g><path style="opacity:0.274" fill="#74330b" d="M 157.5,193.5 C 181.006,193.169 204.339,193.502 227.5,194.5C 227.167,194.5 226.833,194.5 226.5,194.5C 203.764,195.306 181.097,195.306 158.5,194.5C 158.832,230.671 158.498,266.671 157.5,302.5C 157.5,266.167 157.5,229.833 157.5,193.5 Z"/></g>
<g><path style="opacity:0.094" fill="#673001" d="M 308.5,170.5 C 308.5,178.167 308.5,185.833 308.5,193.5C 353.167,193.5 397.833,193.5 442.5,193.5C 442.5,193.833 442.5,194.167 442.5,194.5C 397.5,194.5 352.5,194.5 307.5,194.5C 307.174,186.316 307.508,178.316 308.5,170.5 Z"/></g>
<g><path style="opacity:0.404" fill="#c66201" d="M 610.5,180.5 C 613.43,184.87 614.43,189.537 613.5,194.5C 576.167,194.5 538.833,194.5 501.5,194.5C 538.33,193.502 575.33,193.168 612.5,193.5C 612.575,189.019 611.908,184.686 610.5,180.5 Z"/></g>
<g><path style="opacity:0.478" fill="#b45803" d="M 759.5,199.5 C 759.167,199.5 758.833,199.5 758.5,199.5C 757.657,197.827 756.324,196.66 754.5,196C 750.5,195.5 746.5,195 742.5,194.5C 721.628,194.829 700.961,194.829 680.5,194.5C 678.523,205.116 677.856,216.116 678.5,227.5C 702.672,227.831 726.672,227.498 750.5,226.5C 755.115,226.661 758.115,224.661 759.5,220.5C 759.673,224.17 758.007,226.67 754.5,228C 728.835,228.5 703.169,228.667 677.5,228.5C 677.5,216.833 677.5,205.167 677.5,193.5C 703.502,193.333 729.502,193.5 755.5,194C 757.373,195.085 759.04,196.418 760.5,198C 759.944,198.383 759.611,198.883 759.5,199.5 Z"/></g>
<g><path style="opacity:0.273" fill="#717070" d="M 1505.5,194.5 C 1531.34,193.171 1557.34,193.171 1583.5,194.5C 1583.86,195.183 1584.2,195.85 1584.5,196.5C 1580.62,195.941 1576.79,195.275 1573,194.5C 1550.63,194.664 1528.46,194.664 1506.5,194.5C 1506.17,194.5 1505.83,194.5 1505.5,194.5 Z"/></g>
<g><path style="opacity:0.49" fill="#6d370a" d="M 226.5,194.5 C 226.833,194.5 227.167,194.5 227.5,194.5C 230.518,194.335 233.518,194.502 236.5,195C 237.337,196.011 237.67,197.178 237.5,198.5C 234.097,196.264 230.431,194.931 226.5,194.5 Z"/></g>
<g><path style="opacity:0.008" fill="#210400" d="M 680.5,194.5 C 679.524,205.085 679.191,215.752 679.5,226.5C 703.167,226.5 726.833,226.5 750.5,226.5C 726.672,227.498 702.672,227.831 678.5,227.5C 677.856,216.116 678.523,205.116 680.5,194.5 Z"/></g>
<g><path style="opacity:0.765" fill="#8f4606" d="M 847.5,190.5 C 847.264,193.621 845.931,195.954 843.5,197.5C 844.079,194.669 845.412,192.336 847.5,190.5 Z"/></g>
<g><path style="opacity:0.141" fill="#5b5b5b" d="M 1110.5,190.5 C 1111.45,191.919 1111.78,193.585 1111.5,195.5C 1078.5,195.5 1045.5,195.5 1012.5,195.5C 1012.17,195.5 1011.83,195.5 1011.5,195.5C 1044.33,194.502 1077.33,194.168 1110.5,194.5C 1110.5,193.167 1110.5,191.833 1110.5,190.5 Z"/></g>
<g><path style="opacity:0.998" fill="#7a3d0a" d="M 874.5,201.5 C 873.778,201.082 873.278,200.416 873,199.5C 872.148,200.571 871.315,201.571 870.5,202.5C 870.64,200.876 869.973,199.71 868.5,199C 870.473,198.505 872.473,198.338 874.5,198.5C 874.5,199.5 874.5,200.5 874.5,201.5 Z"/></g>
<g><path style="opacity:0.196" fill="#555555" d="M 1329.5,195.5 C 1329.5,195.167 1329.5,194.833 1329.5,194.5C 1358.5,194.5 1387.5,194.5 1416.5,194.5C 1416.5,221.833 1416.5,249.167 1416.5,276.5C 1416.17,276.5 1415.83,276.5 1415.5,276.5C 1415.5,276.167 1415.5,275.833 1415.5,275.5C 1415.5,248.833 1415.5,222.167 1415.5,195.5C 1387.17,195.5 1358.83,195.5 1330.5,195.5C 1330.17,195.5 1329.83,195.5 1329.5,195.5 Z"/></g>
<g><path style="opacity:0.435" fill="#4a4a4a" d="M 981.5,189.5 C 981.333,219.835 981.5,250.168 982,280.5C 982.448,282.224 983.282,282.891 984.5,282.5C 983.626,284.747 983.292,287.08 983.5,289.5C 981.989,287.524 981.156,285.191 981,282.5C 980.68,277.977 980.18,273.477 979.5,269C 979.53,246.833 979.53,224.833 979.5,203C 980.142,198.399 980.809,193.899 981.5,189.5 Z"/></g>
<g><path style="opacity:0.009" fill="#151515" d="M 1584.5,196.5 C 1585.75,196.577 1586.58,197.244 1587,198.5C 1587.82,206.677 1587.66,214.677 1586.5,222.5C 1586.67,214.826 1586.5,207.159 1586,199.5C 1585.49,198.473 1584.99,197.473 1584.5,196.5 Z"/></g>
<g><path style="opacity:0.929" fill="#636363" d="M 1652.5,200.5 C 1653.58,200.539 1654.58,200.873 1655.5,201.5C 1657.92,204.248 1659.92,207.248 1661.5,210.5C 1657.79,207.789 1654.79,204.456 1652.5,200.5 Z"/></g>
<g><path style="opacity:0.279" fill="#7f3e02" d="M 758.5,199.5 C 758.833,199.5 759.167,199.5 759.5,199.5C 760.833,206.167 760.833,212.833 759.5,219.5C 759.756,212.776 759.423,206.109 758.5,199.5 Z"/></g>
<g><path style="opacity:0.875" fill="#a24f04" d="M 843.5,197.5 C 843.082,201.349 841.415,204.349 838.5,206.5C 839.41,203.008 841.076,200.008 843.5,197.5 Z"/></g>
<g><path style="opacity:0.902" fill="#904406" d="M 907.5,202.5 C 908.89,203.899 909.89,205.566 910.5,207.5C 908.241,206.656 907.241,204.989 907.5,202.5 Z"/></g>
<g><path style="opacity:0.18" fill="#444444" d="M 1698.5,205.5 C 1700.91,206.911 1702.58,208.911 1703.5,211.5C 1700.74,210.407 1699.07,208.407 1698.5,205.5 Z"/></g>
<g><path style="opacity:0.796" fill="#924805" d="M 838.5,206.5 C 838.264,209.621 836.931,211.954 834.5,213.5C 835.079,210.669 836.412,208.336 838.5,206.5 Z"/></g>
<g><path style="opacity:0.945" fill="#834008" d="M 878.5,209.5 C 881.845,211.02 883.511,213.687 883.5,217.5C 881.347,215.206 879.68,212.54 878.5,209.5 Z"/></g>
<g><path style="opacity:0.714" fill="#5c5b5b" d="M 1615.5,183.5 C 1616.89,185.877 1617.72,188.543 1618,191.5C 1618.67,204.833 1618.67,218.167 1618,231.5C 1617.58,235.529 1616.42,239.196 1614.5,242.5C 1616.74,222.879 1617.08,203.213 1615.5,183.5 Z"/></g>
<g><path style="opacity:0.047" fill="#532904" d="M 865.5,211.5 C 865.573,213.027 864.906,214.027 863.5,214.5C 863.427,212.973 864.094,211.973 865.5,211.5 Z"/></g>
<g><path style="opacity:0.078" fill="#522b05" d="M 912.5,211.5 C 913.906,211.973 914.573,212.973 914.5,214.5C 913.094,214.027 912.427,213.027 912.5,211.5 Z"/></g>
<g><path style="opacity:0.211" fill="#575757" d="M 1285.5,170.5 C 1285.83,170.5 1286.17,170.5 1286.5,170.5C 1286.5,178.833 1286.5,187.167 1286.5,195.5C 1266.5,195.5 1246.5,195.5 1226.5,195.5C 1226.83,231.337 1226.5,267.004 1225.5,302.5C 1225.5,266.5 1225.5,230.5 1225.5,194.5C 1245.5,194.5 1265.5,194.5 1285.5,194.5C 1285.5,186.5 1285.5,178.5 1285.5,170.5 Z"/></g>
<g><path style="opacity:0.773" fill="#8f4506" d="M 834.5,213.5 C 834.264,216.621 832.931,218.954 830.5,220.5C 831.079,217.669 832.412,215.336 834.5,213.5 Z"/></g>
<g><path style="opacity:0.752" fill="#ae5708" d="M 157.5,193.5 C 157.5,229.833 157.5,266.167 157.5,302.5C 147.5,303.833 137.5,303.833 127.5,302.5C 127.5,302.167 127.5,301.833 127.5,301.5C 137.167,301.5 146.833,301.5 156.5,301.5C 156.168,265.329 156.502,229.329 157.5,193.5 Z"/></g>
<g><path style="opacity:0.082" fill="#442103" d="M 501.5,194.5 C 538.833,194.5 576.167,194.5 613.5,194.5C 576.67,195.498 539.67,195.832 502.5,195.5C 502.5,203.833 502.5,212.167 502.5,220.5C 532.671,220.169 562.671,220.502 592.5,221.5C 562.167,221.5 531.833,221.5 501.5,221.5C 501.5,212.5 501.5,203.5 501.5,194.5 Z"/></g>
<g><path style="opacity:0.082" fill="#552c05" d="M 916.5,218.5 C 917.906,218.973 918.573,219.973 918.5,221.5C 917.094,221.027 916.427,220.027 916.5,218.5 Z"/></g>
<g><path style="opacity:0.326" fill="#783c0b" d="M 442.5,245.5 C 442.5,237.833 442.5,230.167 442.5,222.5C 398.165,222.333 353.832,222.5 309.5,223C 308.519,230.413 308.186,237.913 308.5,245.5C 307.172,237.432 307.172,229.265 308.5,221C 353.167,220.333 397.833,220.333 442.5,221C 443.828,229.265 443.828,237.432 442.5,245.5 Z"/></g>
<g><path style="opacity:0.557" fill="#cf6601" d="M 501.5,221.5 C 531.833,221.5 562.167,221.5 592.5,221.5C 596.924,221.272 600.924,222.272 604.5,224.5C 600.44,224.515 596.44,224.015 592.5,223C 561.997,222.832 531.664,222.332 501.5,221.5 Z"/></g>
<g><path style="opacity:1" fill="#e27003" d="M 442.5,245.5 C 397.833,246.833 353.167,246.833 308.5,245.5C 308.186,237.913 308.519,230.413 309.5,223C 353.832,222.5 398.165,222.333 442.5,222.5C 442.5,230.167 442.5,237.833 442.5,245.5 Z"/></g>
<g><path style="opacity:0.997" fill="#bd5d06" d="M 857.5,225.5 C 854.927,232.315 851.594,238.649 847.5,244.5C 847.335,241.482 847.502,238.482 848,235.5C 848.654,236.696 849.154,236.696 849.5,235.5C 849.167,234.833 848.833,234.167 848.5,233.5C 849.833,232.833 851.167,232.167 852.5,231.5C 849.666,229.559 848.832,226.893 850,223.5C 851.081,225.622 851.748,227.622 852,229.5C 853.257,227.254 855.09,225.921 857.5,225.5 Z"/></g>
<g><path style="opacity:0.341" fill="#582d0a" d="M 605.5,224.5 C 607.23,225.026 608.564,226.026 609.5,227.5C 607.368,227.446 606.035,226.446 605.5,224.5 Z"/></g>
<g><path style="opacity:0.388" fill="#582c0a" d="M 887.5,226.5 C 889.048,226.821 889.715,227.821 889.5,229.5C 888.599,228.71 887.932,227.71 887.5,226.5 Z"/></g>
<g><path style="opacity:0.09" fill="#542a05" d="M 920.5,225.5 C 921.906,225.973 922.573,226.973 922.5,228.5C 921.094,228.027 920.427,227.027 920.5,225.5 Z"/></g>
<g><path style="opacity:0.071" fill="#622c00" d="M 230.5,228.5 C 208.33,229.167 185.996,229.833 163.5,230.5C 164.127,231.417 164.461,232.417 164.5,233.5C 162.273,232.599 161.273,230.933 161.5,228.5C 184.5,228.5 207.5,228.5 230.5,228.5 Z"/></g>
<g><path style="opacity:0.169" fill="#4b2506" d="M 609.5,227.5 C 610.906,227.973 611.573,228.973 611.5,230.5C 610.094,230.027 609.427,229.027 609.5,227.5 Z"/></g>
<g><path style="opacity:0.882" fill="#a25004" d="M 830.5,220.5 C 830.082,224.349 828.415,227.349 825.5,229.5C 826.41,226.008 828.076,223.008 830.5,220.5 Z"/></g>
<g><path style="opacity:0.071" fill="#434343" d="M 1582.5,227.5 C 1582.08,228.222 1581.42,228.722 1580.5,229C 1557.14,228.841 1534.14,229.675 1511.5,231.5C 1510.6,230.791 1510.26,229.791 1510.5,228.5C 1534.53,228.804 1558.53,228.471 1582.5,227.5 Z"/></g>
<g><path style="opacity:0.235" fill="#505050" d="M 1286.5,170.5 C 1286.17,170.5 1285.83,170.5 1285.5,170.5C 1235.5,170.5 1185.5,170.5 1135.5,170.5C 1135.5,178.5 1135.5,186.5 1135.5,194.5C 1155.5,194.5 1175.5,194.5 1195.5,194.5C 1195.5,230.5 1195.5,266.5 1195.5,302.5C 1194.67,267.336 1194.17,232.002 1194,196.5C 1174.24,195.507 1154.41,195.174 1134.5,195.5C 1134.5,186.833 1134.5,178.167 1134.5,169.5C 1185.34,169.168 1236,169.501 1286.5,170.5 Z"/></g>
<g><path style="opacity:0.184" fill="#582b07" d="M 474.5,227.5 C 475.117,227.611 475.617,227.944 476,228.5C 476.874,232.288 478.041,235.954 479.5,239.5C 476.688,236.088 475.022,232.088 474.5,227.5 Z"/></g>
<g><path style="opacity:0.8" fill="#934906" d="M 825.5,229.5 C 825.264,232.621 823.931,234.954 821.5,236.5C 822.079,233.669 823.412,231.336 825.5,229.5 Z"/></g>
<g><path style="opacity:0.671" fill="#85420a" d="M 164.5,233.5 C 167.179,233.525 168.512,234.858 168.5,237.5C 166.833,236.5 165.5,235.167 164.5,233.5 Z"/></g>
<g><path style="opacity:0.09" fill="#582f05" d="M 924.5,232.5 C 925.906,232.973 926.573,233.973 926.5,235.5C 925.094,235.027 924.427,234.027 924.5,232.5 Z"/></g>
<g><path style="opacity:0.553" fill="#7a3908" d="M 892.5,235.5 C 894.048,235.821 894.715,236.821 894.5,238.5C 893.599,237.71 892.932,236.71 892.5,235.5 Z"/></g>
<g><path style="opacity:0.259" fill="#663206" d="M 789.5,232.5 C 789.59,235.152 788.924,237.485 787.5,239.5C 787.41,236.848 788.076,234.515 789.5,232.5 Z"/></g>
<g><path style="opacity:0.157" fill="#492506" d="M 168.5,237.5 C 170.404,237.738 171.738,238.738 172.5,240.5C 170.596,240.262 169.262,239.262 168.5,237.5 Z"/></g>
<g><path style="opacity:0.251" fill="#653306" d="M 268.5,234.5 C 268.59,237.152 267.924,239.485 266.5,241.5C 266.41,238.848 267.076,236.515 268.5,234.5 Z"/></g>
<g><path style="opacity:0.875" fill="#854207" d="M 926.5,235.5 C 927.89,236.899 928.89,238.566 929.5,240.5C 927.241,239.656 926.241,237.989 926.5,235.5 Z"/></g>
<g><path style="opacity:0.157" fill="#313131" d="M 1687.5,238.5 C 1689.5,238.5 1690.5,239.5 1690.5,241.5C 1689.17,240.833 1688.17,239.833 1687.5,238.5 Z"/></g>
<g><path style="opacity:0.467" fill="#60310b" d="M 894.5,239.5 C 896.048,239.821 896.715,240.821 896.5,242.5C 895.599,241.71 894.932,240.71 894.5,239.5 Z"/></g>
<g><path style="opacity:0.161" fill="#582705" d="M 613.5,234.5 C 614.924,236.515 615.59,238.848 615.5,241.5C 614.076,239.485 613.41,237.152 613.5,234.5 Z"/></g>
<g><path style="opacity:0.78" fill="#914606" d="M 821.5,236.5 C 821.264,239.621 819.931,241.954 817.5,243.5C 818.079,240.669 819.412,238.336 821.5,236.5 Z"/></g>
<g><path style="opacity:0.38" fill="#562c09" d="M 896.5,243.5 C 898.048,243.821 898.715,244.821 898.5,246.5C 897.599,245.71 896.932,244.71 896.5,243.5 Z"/></g>
<g><path style="opacity:0.6" fill="#d36800" d="M 481.5,241.5 C 484.022,241.128 486.022,241.961 487.5,244C 493.793,245.023 500.126,245.689 506.5,246C 534.003,246.168 561.336,246.668 588.5,247.5C 557.833,247.5 527.167,247.5 496.5,247.5C 490.479,247.759 485.479,245.759 481.5,241.5 Z"/></g>
<g><path style="opacity:0.337" fill="#813e01" d="M 768.5,170.5 C 728.33,170.168 688.33,170.501 648.5,171.5C 648.5,214.833 648.5,258.167 648.5,301.5C 648.5,301.833 648.5,302.167 648.5,302.5C 647.501,258.336 647.168,214.003 647.5,169.5C 688.003,169.168 728.337,169.501 768.5,170.5 Z"/></g>
<g><path style="opacity:0.757" fill="#894406" d="M 817.5,243.5 C 817.264,246.621 815.931,248.954 813.5,250.5C 814.079,247.669 815.412,245.336 817.5,243.5 Z"/></g>
<g><path style="opacity:0.004" fill="#1a0900" d="M 846.5,246.5 C 846.833,247.167 847.167,247.833 847.5,248.5C 846.508,248.672 845.842,248.338 845.5,247.5C 845.5,246.833 845.833,246.5 846.5,246.5 Z"/></g>
<g><path style="opacity:0.278" fill="#aa5402" d="M 845.5,247.5 C 845.842,248.338 846.508,248.672 847.5,248.5C 858.985,248.639 870.485,248.305 882,247.5C 885.892,247.829 889.392,248.829 892.5,250.5C 876.563,249.848 860.563,249.181 844.5,248.5C 844.624,247.893 844.957,247.56 845.5,247.5 Z"/></g>
<g><path style="opacity:0.667" fill="#82410a" d="M 180.5,248.5 C 183.179,248.525 184.512,249.858 184.5,252.5C 182.833,251.5 181.5,250.167 180.5,248.5 Z"/></g>
<g><path style="opacity:0.353" fill="#ab5506" d="M 782.5,245.5 C 780.88,247.984 778.547,249.484 775.5,250C 771.582,251.156 767.582,251.656 763.5,251.5C 735.167,251.5 706.833,251.5 678.5,251.5C 678.5,268.167 678.5,284.833 678.5,301.5C 673.881,302.828 668.881,303.494 663.5,303.5C 658.322,303.499 653.322,303.166 648.5,302.5C 648.5,302.167 648.5,301.833 648.5,301.5C 658.167,301.5 667.833,301.5 677.5,301.5C 677.5,284.5 677.5,267.5 677.5,250.5C 708.848,250.808 740.182,250.308 771.5,249C 775.165,247.722 778.832,246.556 782.5,245.5 Z"/></g>
<g><path style="opacity:0.565" fill="#be5d03" d="M 262.5,246.5 C 258.835,250.618 254.168,252.618 248.5,252.5C 239.983,252.174 231.65,252.507 223.5,253.5C 222.957,253.44 222.624,253.107 222.5,252.5C 230.813,251.668 239.147,251.168 247.5,251C 252.685,249.993 257.685,248.493 262.5,246.5 Z"/></g>
<g><path style="opacity:0.008" fill="#000000" d="M 763.5,251.5 C 735.672,252.498 707.672,252.831 679.5,252.5C 679.83,269.009 679.496,285.342 678.5,301.5C 678.5,284.833 678.5,268.167 678.5,251.5C 706.833,251.5 735.167,251.5 763.5,251.5 Z"/></g>
<g><path style="opacity:0.618" fill="#797979" d="M 1610.5,247.5 C 1606.74,250.374 1602.41,252.208 1597.5,253C 1589.66,253.171 1581.99,253.671 1574.5,254.5C 1573.1,254.029 1571.77,253.362 1570.5,252.5C 1578.81,251.668 1587.15,251.168 1595.5,251C 1600.6,250.129 1605.6,248.962 1610.5,247.5 Z"/></g>
<g><path style="opacity:0.153" fill="#502907" d="M 184.5,252.5 C 186.027,252.427 187.027,253.094 187.5,254.5C 185.973,254.573 184.973,253.906 184.5,252.5 Z"/></g>
<g><path style="opacity:0.145" fill="#773a02" d="M 223.5,253.5 C 231.65,252.507 239.983,252.174 248.5,252.5C 241.167,253.167 233.833,253.833 226.5,254.5C 225.391,254.443 224.391,254.11 223.5,253.5 Z"/></g>
<g><path style="opacity:0.051" fill="#492504" d="M 894.5,254.5 C 895.906,254.973 896.573,255.973 896.5,257.5C 895.094,257.027 894.427,256.027 894.5,254.5 Z"/></g>
<g><path style="opacity:0.459" fill="#5e310b" d="M 903.5,256.5 C 905.048,256.821 905.715,257.821 905.5,259.5C 904.599,258.71 903.932,257.71 903.5,256.5 Z"/></g>
<g><path style="opacity:0.871" fill="#9e4e05" d="M 813.5,250.5 C 813.082,254.349 811.415,257.349 808.5,259.5C 809.41,256.008 811.076,253.008 813.5,250.5 Z"/></g>
<g><path style="opacity:0.365" fill="#542e0a" d="M 905.5,260.5 C 907.048,260.821 907.715,261.821 907.5,263.5C 906.599,262.71 905.932,261.71 905.5,260.5 Z"/></g>
<g><path style="opacity:0.067" fill="#502904" d="M 939.5,258.5 C 940.906,258.973 941.573,259.973 941.5,261.5C 940.094,261.027 939.427,260.027 939.5,258.5 Z"/></g>
<g><path style="opacity:0.997" fill="#c46004" d="M 226.5,254.5 C 230.817,257.486 234.817,260.82 238.5,264.5C 236.559,264.131 234.725,263.464 233,262.5C 232.667,263.167 232.333,263.833 232,264.5C 230.055,261.173 228.222,257.84 226.5,254.5 Z"/></g>
<g><path style="opacity:0.69" fill="#86420a" d="M 195.5,262.5 C 198.179,262.525 199.512,263.858 199.5,266.5C 197.833,265.5 196.5,264.167 195.5,262.5 Z"/></g>
<g><path style="opacity:0.788" fill="#904706" d="M 808.5,259.5 C 808.264,262.621 806.931,264.954 804.5,266.5C 805.079,263.669 806.412,261.336 808.5,259.5 Z"/></g>
<g><path style="opacity:0.898" fill="#6a3308" d="M 908.5,265.5 C 912.49,270.133 915.49,275.466 917.5,281.5C 913.997,276.498 910.997,271.165 908.5,265.5 Z"/></g>
<g><path style="opacity:0.569" fill="#7c3f07" d="M 199.5,266.5 C 201.632,266.554 202.965,267.554 203.5,269.5C 201.596,269.262 200.262,268.262 199.5,266.5 Z"/></g>
<g><path style="opacity:0.067" fill="#502804" d="M 943.5,265.5 C 944.906,265.973 945.573,266.973 945.5,268.5C 944.094,268.027 943.427,267.027 943.5,265.5 Z"/></g>
<g><path style="opacity:0.995" fill="#c46003" d="M 238.5,264.5 C 242.146,266.817 245.48,269.484 248.5,272.5C 245.833,272.167 243.167,271.833 240.5,271.5C 240.122,269.079 239.455,266.746 238.5,264.5 Z"/></g>
<g><path style="opacity:0.063" fill="#5c2e00" d="M 903.5,270.5 C 904.434,271.568 904.768,272.901 904.5,274.5C 879.759,274.177 855.092,274.51 830.5,275.5C 854.477,273.51 878.81,272.843 903.5,273.5C 903.5,272.5 903.5,271.5 903.5,270.5 Z"/></g>
<g><path style="opacity:0.89" fill="#a65004" d="M 804.5,266.5 C 802.998,272.855 799.998,278.188 795.5,282.5C 797.997,276.835 800.997,271.502 804.5,266.5 Z"/></g>
<g><path style="opacity:0.071" fill="#562704" d="M 947.5,272.5 C 948.906,272.973 949.573,273.973 949.5,275.5C 948.094,275.027 947.427,274.027 947.5,272.5 Z"/></g>
<g><path style="opacity:0.999" fill="#cd6403" d="M 248.5,272.5 C 253.873,276.844 259.206,281.177 264.5,285.5C 261.788,285.263 259.288,285.263 257,285.5C 255.983,283.624 255.149,281.624 254.5,279.5C 253.167,278.833 251.833,278.167 250.5,277.5C 250.94,278.953 250.274,280.119 248.5,281C 250.905,282.615 250.905,283.281 248.5,283C 248.021,279.521 248.021,276.021 248.5,272.5 Z"/></g>
<g><path style="opacity:0.039" fill="#511e01" d="M 308.5,276.5 C 353.664,275.501 398.997,275.168 444.5,275.5C 444.827,284.682 444.493,293.682 443.5,302.5C 443.5,302.167 443.5,301.833 443.5,301.5C 443.5,301.167 443.5,300.833 443.5,300.5C 443.5,292.833 443.5,285.167 443.5,277.5C 398.67,276.501 353.67,276.168 308.5,276.5 Z"/></g>
<g><path style="opacity:0.039" fill="#552102" d="M 496.5,247.5 C 527.167,247.5 557.833,247.5 588.5,247.5C 588.5,257.167 588.5,266.833 588.5,276.5C 548.833,276.5 509.167,276.5 469.5,276.5C 508.663,275.501 547.996,275.168 587.5,275.5C 587.5,266.5 587.5,257.5 587.5,248.5C 556.995,248.831 526.662,248.498 496.5,247.5 Z"/></g>
<g><path style="opacity:0.039" fill="#343434" d="M 1011.5,195.5 C 1011.83,195.5 1012.17,195.5 1012.5,195.5C 1012.5,222.167 1012.5,248.833 1012.5,275.5C 1045.5,275.5 1078.5,275.5 1111.5,275.5C 1111.8,278.059 1111.47,280.393 1110.5,282.5C 1110.5,280.5 1110.5,278.5 1110.5,276.5C 1077.5,276.5 1044.5,276.5 1011.5,276.5C 1011.5,249.5 1011.5,222.5 1011.5,195.5 Z"/></g>
<g><path style="opacity:0.039" fill="#242424" d="M 1329.5,195.5 C 1329.83,195.5 1330.17,195.5 1330.5,195.5C 1330.5,222.167 1330.5,248.833 1330.5,275.5C 1358.83,275.5 1387.17,275.5 1415.5,275.5C 1415.5,275.833 1415.5,276.167 1415.5,276.5C 1386.83,276.5 1358.17,276.5 1329.5,276.5C 1329.5,249.5 1329.5,222.5 1329.5,195.5 Z"/></g>
<g><path style="opacity:0.486" fill="#919090" d="M 1329.5,194.5 C 1329.5,194.833 1329.5,195.167 1329.5,195.5C 1329.5,222.5 1329.5,249.5 1329.5,276.5C 1358.17,276.5 1386.83,276.5 1415.5,276.5C 1415.83,276.5 1416.17,276.5 1416.5,276.5C 1387.34,277.498 1358,277.831 1328.5,277.5C 1328.17,249.662 1328.5,221.995 1329.5,194.5 Z"/></g>
<g><path style="opacity:0.686" fill="#894209" d="M 211.5,277.5 C 214.179,277.525 215.512,278.858 215.5,281.5C 213.833,280.5 212.5,279.167 211.5,277.5 Z"/></g>
<g><path style="opacity:1" fill="#f07600" d="M 443.5,277.5 C 443.5,285.167 443.5,292.833 443.5,300.5C 398.833,300.5 354.167,300.5 309.5,300.5C 309.5,292.833 309.5,285.167 309.5,277.5C 354.167,277.5 398.833,277.5 443.5,277.5 Z"/></g>
<g><path style="opacity:0.075" fill="#542604" d="M 951.5,279.5 C 952.906,279.973 953.573,280.973 953.5,282.5C 952.094,282.027 951.427,281.027 951.5,279.5 Z"/></g>
<g><path style="opacity:0.792" fill="#914706" d="M 795.5,282.5 C 795.264,285.621 793.931,287.954 791.5,289.5C 792.079,286.669 793.412,284.336 795.5,282.5 Z"/></g>
<g><path style="opacity:1" fill="#a8a8a8" d="M 1107.5,180.5 C 1109.6,183.408 1110.6,186.742 1110.5,190.5C 1110.5,191.833 1110.5,193.167 1110.5,194.5C 1077.33,194.168 1044.33,194.502 1011.5,195.5C 1011.5,222.5 1011.5,249.5 1011.5,276.5C 1044.5,276.5 1077.5,276.5 1110.5,276.5C 1110.5,278.5 1110.5,280.5 1110.5,282.5C 1110.11,287.937 1108.11,292.604 1104.5,296.5C 1100.17,297.551 1095.84,298.718 1091.5,300C 1061.18,301.704 1030.84,301.704 1000.5,300C 997.077,300.145 995.077,298.645 994.5,295.5C 992.179,294.375 989.846,294.208 987.5,295C 986.603,292.689 985.27,290.856 983.5,289.5C 983.292,287.08 983.626,284.747 984.5,282.5C 983.282,282.891 982.448,282.224 982,280.5C 981.5,250.168 981.333,219.835 981.5,189.5C 981.528,186.084 982.528,183.084 984.5,180.5C 990.055,176.259 996.389,173.426 1003.5,172C 1031.5,171.333 1059.5,171.333 1087.5,172C 1091.58,172.687 1095.58,173.687 1099.5,175C 1099.98,176.008 1100.15,177.175 1100,178.5C 1102.84,177.483 1105.34,178.15 1107.5,180.5 Z"/></g>
<g><path style="opacity:0.996" fill="#9e4d05" d="M 615.5,243.5 C 616.916,257.375 616.749,271.375 615,285.5C 612.693,295.308 606.526,300.641 596.5,301.5C 598.99,299.186 601.99,297.853 605.5,297.5C 605.5,295.833 605.5,294.167 605.5,292.5C 606.833,292.5 608.167,292.5 609.5,292.5C 609.34,290.801 609.506,289.134 610,287.5C 610.333,288.167 610.667,288.833 611,289.5C 611.593,285.842 612.927,282.509 615,279.5C 615.5,267.505 615.667,255.505 615.5,243.5 Z"/></g>
<g><path style="opacity:0.082" fill="#552a05" d="M 955.5,286.5 C 956.906,286.973 957.573,287.973 957.5,289.5C 956.094,289.027 955.427,288.027 955.5,286.5 Z"/></g>
<g><path style="opacity:0.169" fill="#333333" d="M 1571.5,288.5 C 1573.75,289.08 1575.42,290.413 1576.5,292.5C 1574.25,291.92 1572.58,290.587 1571.5,288.5 Z"/></g>
<g><path style="opacity:0.999" fill="#9f4e08" d="M 920.5,288.5 C 921.756,288.904 922.923,289.571 924,290.5C 924.772,290.355 925.439,290.022 926,289.5C 925.466,292.773 925.633,296.107 926.5,299.5C 924.262,296.028 922.262,292.362 920.5,288.5 Z"/></g>
<g><path style="opacity:0.997" fill="#bf5d04" d="M 223.5,288.5 C 226.403,290.378 229.237,291.711 232,292.5C 234.711,289.835 235.711,290.502 235,294.5C 234.282,293.549 233.449,293.383 232.5,294C 233.527,295.866 234.527,297.7 235.5,299.5C 230.874,296.542 226.874,292.876 223.5,288.5 Z"/></g>
<g><path style="opacity:0.612" fill="#864207" d="M 471.5,288.5 C 473.545,289.923 474.545,291.923 474.5,294.5C 472.654,292.97 471.654,290.97 471.5,288.5 Z"/></g>
<g><path style="opacity:0.773" fill="#8e4506" d="M 791.5,289.5 C 791.264,292.621 789.931,294.954 787.5,296.5C 788.079,293.669 789.412,291.336 791.5,289.5 Z"/></g>
<g><path style="opacity:0.753" fill="#974a04" d="M 474.5,294.5 C 477.063,294.731 478.73,296.065 479.5,298.5C 477.251,297.92 475.585,296.587 474.5,294.5 Z"/></g>
<g><path style="opacity:0.082" fill="#552a05" d="M 959.5,293.5 C 960.906,293.973 961.573,294.973 961.5,296.5C 960.094,296.027 959.427,295.027 959.5,293.5 Z"/></g>
<g><path style="opacity:1" fill="#d16701" d="M 264.5,285.5 C 269.5,289.5 274.5,293.5 279.5,297.5C 279.751,299.17 280.418,300.67 281.5,302C 267.171,302.5 252.837,302.667 238.5,302.5C 237.167,301.833 236.167,300.833 235.5,299.5C 248.801,300.797 262.134,300.797 275.5,299.5C 274.522,295.183 271.856,293.183 267.5,293.5C 266.974,290.646 265.974,287.979 264.5,285.5 Z"/></g>
<g><path style="opacity:0.576" fill="#3d200a" d="M 279.5,297.5 C 282.238,298.663 283.238,300.497 282.5,303C 267.661,303.828 252.994,303.661 238.5,302.5C 252.837,302.667 267.171,302.5 281.5,302C 280.418,300.67 279.751,299.17 279.5,297.5 Z"/></g>
<g><path style="opacity:0.824" fill="#dd6c00" d="M 308.5,276.5 C 353.67,276.168 398.67,276.501 443.5,277.5C 398.833,277.5 354.167,277.5 309.5,277.5C 309.5,285.167 309.5,292.833 309.5,300.5C 354.167,300.5 398.833,300.5 443.5,300.5C 443.5,300.833 443.5,301.167 443.5,301.5C 398.5,301.5 353.5,301.5 308.5,301.5C 308.5,293.167 308.5,284.833 308.5,276.5 Z"/></g>
<g><path style="opacity:0.576" fill="#703507" d="M 787.5,296.5 C 786.962,298.117 786.629,299.784 786.5,301.5C 785.833,301.5 785.5,301.833 785.5,302.5C 784.352,300.085 785.018,298.085 787.5,296.5 Z"/></g>
<g><path style="opacity:0.329" fill="#743b0c" d="M 308.5,276.5 C 308.5,284.833 308.5,293.167 308.5,301.5C 353.5,301.5 398.5,301.5 443.5,301.5C 443.5,301.833 443.5,302.167 443.5,302.5C 398.669,303.665 353.669,303.831 308.5,303C 307.172,294.068 307.172,285.235 308.5,276.5 Z"/></g>
<g><path style="opacity:0.33" fill="#81410b" d="M 479.5,298.5 C 483.407,298.513 487.074,299.347 490.5,301C 525.832,301.5 561.165,301.667 596.5,301.5C 593.359,302.321 590.025,302.821 586.5,303C 553.809,303.932 521.142,303.599 488.5,302C 485.135,301.495 482.135,300.328 479.5,298.5 Z"/></g>
<g><path style="opacity:0.329" fill="#7d400c" d="M 818.5,297.5 C 817.758,299.426 816.758,301.259 815.5,303C 805.325,303.825 795.325,303.658 785.5,302.5C 785.5,301.833 785.833,301.5 786.5,301.5C 796.172,301.666 805.839,301.5 815.5,301C 815.043,300.586 814.709,300.086 814.5,299.5C 815.766,298.638 817.099,297.971 818.5,297.5 Z"/></g>
<g><path style="opacity:0.329" fill="#793e0c" d="M 961.5,296.5 C 963.534,298.365 964.201,300.532 963.5,303C 951.833,303.667 940.167,303.667 928.5,303C 927.695,301.887 927.028,300.721 926.5,299.5C 938.323,301.576 950.323,302.076 962.5,301C 961.62,299.644 961.286,298.144 961.5,296.5 Z"/></g>
<g><path style="opacity:0.33" fill="#6a6a6a" d="M 983.5,289.5 C 985.27,290.856 986.603,292.689 987.5,295C 989.846,294.208 992.179,294.375 994.5,295.5C 995.077,298.645 997.077,300.145 1000.5,300C 1030.84,301.704 1061.18,301.704 1091.5,300C 1095.84,298.718 1100.17,297.551 1104.5,296.5C 1097.98,300.982 1090.64,303.149 1082.5,303C 1054.81,303.908 1027.14,303.575 999.5,302C 994.262,301.297 989.762,299.13 986,295.5C 984.441,293.783 983.608,291.783 983.5,289.5 Z"/></g>
<g><path style="opacity:0.33" fill="#5e5e5e" d="M 1303.5,294.5 C 1307.4,296.037 1311.24,297.703 1315,299.5C 1319.82,300.12 1324.65,300.62 1329.5,301C 1362.16,301.5 1394.83,301.667 1427.5,301.5C 1424.36,302.321 1421.03,302.821 1417.5,303C 1387.17,303.667 1356.83,303.667 1326.5,303C 1321.01,302.798 1315.68,301.798 1310.5,300C 1307.4,299.065 1305.07,297.231 1303.5,294.5 Z"/></g>
<g><path style="opacity:0.779" fill="#ad5505" d="M 804.5,320.5 C 804.5,319.167 804.5,317.833 804.5,316.5C 794.174,317.018 783.841,317.351 773.5,317.5C 776.608,315.829 780.108,314.829 784,314.5C 790.851,315.214 798.351,315.547 806.5,315.5C 806.598,317.553 805.931,319.22 804.5,320.5 Z"/></g>
<g><path style="opacity:0.999" fill="#ed7200" d="M 804.5,320.5 C 801.633,324.909 798.299,328.909 794.5,332.5C 793.5,332.833 792.833,333.5 792.5,334.5C 787.729,340.61 782.062,345.61 775.5,349.5C 769.968,352.625 764.301,355.625 758.5,358.5C 757.614,359.325 757.281,360.325 757.5,361.5C 757.167,361.5 756.833,361.5 756.5,361.5C 752.272,361.896 748.272,363.063 744.5,365C 743.244,365.417 742.577,366.25 742.5,367.5C 738.841,367.149 735.841,368.149 733.5,370.5C 732.791,371.404 731.791,371.737 730.5,371.5C 725.146,371.569 719.813,371.902 714.5,372.5C 713.685,371.163 712.518,370.163 711,369.5C 709,370.167 707,370.833 705,371.5C 706.253,367.329 705.253,366.662 702,369.5C 701.667,370.5 701.333,371.5 701,372.5C 698.357,370.377 695.691,369.044 693,368.5C 692.309,371.266 690.809,371.933 688.5,370.5C 684.793,372.784 681.626,372.117 679,368.5C 677.716,369.572 677.383,370.905 678,372.5C 677.333,371.833 676.667,371.167 676,370.5C 674.381,371.083 672.548,371.083 670.5,370.5C 669.833,371.167 669.167,371.833 668.5,372.5C 667.289,371.61 665.955,371.61 664.5,372.5C 663.353,372.182 662.519,371.516 662,370.5C 660.396,371.649 658.73,371.649 657,370.5C 655.779,371.272 654.779,372.272 654,373.5C 653.667,372.833 653.333,372.167 653,371.5C 651.644,372.38 650.144,372.714 648.5,372.5C 648.307,368.551 647.807,368.551 647,372.5C 646.692,371.692 646.192,371.025 645.5,370.5C 642.964,370.844 640.797,371.844 639,373.5C 638,372.833 637,372.167 636,371.5C 632.28,371.326 628.447,371.66 624.5,372.5C 624.649,371.448 624.483,370.448 624,369.5C 622.667,373.5 621.333,373.5 620,369.5C 619.779,372.943 618.779,373.276 617,370.5C 615.333,371.167 613.667,371.833 612,372.5C 606.643,371.59 600.643,371.59 594,372.5C 593.667,371.833 593.333,371.167 593,370.5C 590.778,373.044 588.611,373.044 586.5,370.5C 585.5,371.167 584.5,371.833 583.5,372.5C 581.522,371.869 579.355,371.869 577,372.5C 576.667,371.833 576.333,371.167 576,370.5C 574.951,371.517 573.784,371.684 572.5,371C 573.696,370.346 573.696,369.846 572.5,369.5C 571.481,370.687 570.314,371.687 569,372.5C 567.192,372.112 565.525,372.112 564,372.5C 563.309,370.109 562.309,370.109 561,372.5C 559.667,371.167 558.333,371.167 557,372.5C 556.667,371.833 556.333,371.167 556,370.5C 555.261,371.574 554.261,372.241 553,372.5C 551.204,372.087 549.537,372.087 548,372.5C 547.333,369.833 546.667,369.833 546,372.5C 545.374,370.009 544.541,370.009 543.5,372.5C 542.5,371.833 541.5,371.167 540.5,370.5C 539.28,371.711 538.113,371.711 537,370.5C 536.333,371.167 535.667,371.833 535,372.5C 531.444,372.056 528.11,372.056 525,372.5C 523.209,370.487 521.875,370.487 521,372.5C 519.107,371.673 516.941,371.673 514.5,372.5C 514.167,371.833 513.833,371.167 513.5,370.5C 512.833,371.167 512.167,371.833 511.5,372.5C 508.713,371.289 505.879,371.289 503,372.5C 501.149,370.219 499.482,370.219 498,372.5C 496.182,370.355 494.682,370.355 493.5,372.5C 492.5,371.167 491.5,371.167 490.5,372.5C 489.031,370.625 487.198,370.625 485,372.5C 483.434,373.061 482.101,372.394 481,370.5C 480.161,371.624 478.994,372.291 477.5,372.5C 473.109,373.069 468.443,372.402 463.5,370.5C 462.5,371.167 461.5,371.833 460.5,372.5C 456.514,371.862 452.68,371.862 449,372.5C 447.667,371.833 446.667,370.833 446,369.5C 445.517,370.448 445.351,371.448 445.5,372.5C 443.799,372.034 442.299,372.034 441,372.5C 440.309,370.109 439.309,370.109 438,372.5C 437,371.167 436,371.167 435,372.5C 433.691,370.109 432.691,370.109 432,372.5C 429.538,372.088 427.205,372.088 425,372.5C 422.923,371.983 420.923,371.316 419,370.5C 417.055,372.181 415.055,372.848 413,372.5C 411.488,371.743 410.154,370.743 409,369.5C 408.383,370.449 408.549,371.282 409.5,372C 409,372.167 408.5,372.333 408,372.5C 397.974,372.193 388.141,372.193 378.5,372.5C 377.522,372.023 376.689,371.357 376,370.5C 375.779,373.943 374.779,374.276 373,371.5C 370.889,371.577 368.889,371.911 367,372.5C 366.311,371.643 365.478,370.977 364.5,370.5C 363.167,371.833 361.833,371.833 360.5,370.5C 359.5,371.167 358.5,371.833 357.5,372.5C 356.031,370.625 354.198,370.625 352,372.5C 351.333,369.833 350.667,369.833 350,372.5C 349.374,370.009 348.541,370.009 347.5,372.5C 346.522,372.023 345.689,371.357 345,370.5C 341.463,371.434 338.129,371.434 335,370.5C 333.314,373.022 331.981,372.689 331,369.5C 329.688,371.658 328.022,371.991 326,370.5C 322.869,371.206 319.702,371.873 316.5,372.5C 312.511,371.813 308.345,371.813 304,372.5C 303.333,368.5 302.667,368.5 302,372.5C 300.192,372.112 298.525,372.112 297,372.5C 295.437,369.956 293.937,369.956 292.5,372.5C 289.956,372.377 287.456,372.377 285,372.5C 284.333,369.833 283.667,369.833 283,372.5C 281.518,370.219 279.851,370.219 278,372.5C 277.374,370.009 276.541,370.009 275.5,372.5C 273.359,372.112 271.359,372.112 269.5,372.5C 268.459,370.009 267.626,370.009 267,372.5C 266.667,371.833 266.333,371.167 266,370.5C 265.311,371.357 264.478,372.023 263.5,372.5C 261.5,371.167 259.5,371.167 257.5,372.5C 255.674,370.219 253.674,370.219 251.5,372.5C 250.5,371.833 249.5,371.167 248.5,370.5C 245.012,372.78 241.679,372.78 238.5,370.5C 237.017,372.946 235.851,372.612 235,369.5C 234.16,372.464 233.16,372.797 232,370.5C 231.333,373.167 230.667,373.167 230,370.5C 229.667,371.167 229.333,371.833 229,372.5C 219.303,372.137 209.636,371.803 200,371.5C 198.691,373.891 197.691,373.891 197,371.5C 193.658,371.959 190.325,372.292 187,372.5C 186.333,369.833 185.667,369.833 185,372.5C 181.86,372.112 178.86,372.112 176,372.5C 173.667,371.833 171.333,371.167 169,370.5C 168.779,373.943 167.779,374.276 166,371.5C 163.975,372.26 162.142,372.594 160.5,372.5C 155.672,371.554 150.839,371.887 146,373.5C 143.927,372.252 141.761,371.252 139.5,370.5C 137.833,369.5 136.5,368.167 135.5,366.5C 134.833,365.5 134.167,364.5 133.5,363.5C 320.333,362.667 507.333,362.167 694.5,362C 699.833,361 705.167,360 710.5,359C 712.119,358.764 713.119,357.931 713.5,356.5C 716.716,356.655 719.383,355.655 721.5,353.5C 723.421,352.637 725.421,351.971 727.5,351.5C 730.631,352.092 732.964,351.092 734.5,348.5C 735.514,347.326 736.847,346.66 738.5,346.5C 740.848,346.408 742.514,345.408 743.5,343.5C 745.223,341.782 747.223,340.449 749.5,339.5C 752.831,339.169 755.164,337.503 756.5,334.5C 760.436,332.234 763.769,329.234 766.5,325.5C 768.262,324.738 769.262,323.404 769.5,321.5C 772.142,321.512 773.475,320.179 773.5,317.5C 783.841,317.351 794.174,317.018 804.5,316.5C 804.5,317.833 804.5,319.167 804.5,320.5 Z"/></g>
<g><path style="opacity:0.78" fill="#974806" d="M 773.5,317.5 C 773.475,320.179 772.142,321.512 769.5,321.5C 770.5,319.833 771.833,318.5 773.5,317.5 Z"/></g>
<g><path style="opacity:0.137" fill="#5a2e07" d="M 769.5,321.5 C 769.262,323.404 768.262,324.738 766.5,325.5C 766.738,323.596 767.738,322.262 769.5,321.5 Z"/></g>
<g><path style="opacity:0.443" fill="#833f06" d="M 766.5,325.5 C 763.769,329.234 760.436,332.234 756.5,334.5C 759.231,330.766 762.564,327.766 766.5,325.5 Z"/></g>
<g><path style="opacity:0.004" fill="#321902" d="M 794.5,332.5 C 794.5,333.833 793.833,334.5 792.5,334.5C 792.833,333.5 793.5,332.833 794.5,332.5 Z"/></g>
<g><path style="opacity:0.827" fill="#974b05" d="M 756.5,334.5 C 755.164,337.503 752.831,339.169 749.5,339.5C 751.55,337.453 753.883,335.786 756.5,334.5 Z"/></g>
<g><path style="opacity:0.243" fill="#843e06" d="M 743.5,343.5 C 742.514,345.408 740.848,346.408 738.5,346.5C 739.659,344.75 741.326,343.75 743.5,343.5 Z"/></g>
<g><path style="opacity:0.584" fill="#964905" d="M 734.5,348.5 C 732.964,351.092 730.631,352.092 727.5,351.5C 729.509,349.935 731.843,348.935 734.5,348.5 Z"/></g>
<g><path style="opacity:0.322" fill="#783b06" d="M 721.5,353.5 C 719.383,355.655 716.716,356.655 713.5,356.5C 715.936,355.129 718.603,354.129 721.5,353.5 Z"/></g>
<g><path style="opacity:0.455" fill="#924607" d="M 775.5,349.5 C 770.225,354.479 764.225,358.479 757.5,361.5C 757.281,360.325 757.614,359.325 758.5,358.5C 764.301,355.625 769.968,352.625 775.5,349.5 Z"/></g>
<g><path style="opacity:0.118" fill="#7e3a00" d="M 687.5,360.5 C 502.666,361.167 317.666,361.833 132.5,362.5C 132.624,363.107 132.957,363.44 133.5,363.5C 134.167,364.5 134.833,365.5 135.5,366.5C 132.379,365.712 130.712,363.712 130.5,360.5C 316.167,360.5 501.833,360.5 687.5,360.5 Z"/></g>
<g><path style="opacity:0.606" fill="#d26600" d="M 713.5,356.5 C 713.119,357.931 712.119,358.764 710.5,359C 705.167,360 699.833,361 694.5,362C 507.333,362.167 320.333,362.667 133.5,363.5C 132.957,363.44 132.624,363.107 132.5,362.5C 317.666,361.833 502.666,361.167 687.5,360.5C 696.224,359.555 704.89,358.222 713.5,356.5 Z"/></g>
<g><path style="opacity:0.576" fill="#884209" d="M 756.5,361.5 C 752.356,364.568 747.689,366.568 742.5,367.5C 742.577,366.25 743.244,365.417 744.5,365C 748.272,363.063 752.272,361.896 756.5,361.5 Z"/></g>
<g><path style="opacity:0.669" fill="#944706" d="M 742.5,367.5 C 739.916,369.472 736.916,370.472 733.5,370.5C 735.841,368.149 738.841,367.149 742.5,367.5 Z"/></g>
<g><path style="opacity:0.984" fill="#eb6e00" d="M 714.5,372.5 C 711.023,373.323 707.356,373.823 703.5,374C 521.833,374.667 340.167,374.667 158.5,374C 159.416,373.722 160.082,373.222 160.5,372.5C 162.142,372.594 163.975,372.26 166,371.5C 167.779,374.276 168.779,373.943 169,370.5C 171.333,371.167 173.667,371.833 176,372.5C 178.86,372.112 181.86,372.112 185,372.5C 185.667,369.833 186.333,369.833 187,372.5C 190.325,372.292 193.658,371.959 197,371.5C 197.691,373.891 198.691,373.891 200,371.5C 209.636,371.803 219.303,372.137 229,372.5C 229.333,371.833 229.667,371.167 230,370.5C 230.667,373.167 231.333,373.167 232,370.5C 233.16,372.797 234.16,372.464 235,369.5C 235.851,372.612 237.017,372.946 238.5,370.5C 241.679,372.78 245.012,372.78 248.5,370.5C 249.5,371.167 250.5,371.833 251.5,372.5C 253.674,370.219 255.674,370.219 257.5,372.5C 259.5,371.167 261.5,371.167 263.5,372.5C 264.478,372.023 265.311,371.357 266,370.5C 266.333,371.167 266.667,371.833 267,372.5C 267.626,370.009 268.459,370.009 269.5,372.5C 271.359,372.112 273.359,372.112 275.5,372.5C 276.541,370.009 277.374,370.009 278,372.5C 279.851,370.219 281.518,370.219 283,372.5C 283.667,369.833 284.333,369.833 285,372.5C 287.456,372.377 289.956,372.377 292.5,372.5C 293.937,369.956 295.437,369.956 297,372.5C 298.525,372.112 300.192,372.112 302,372.5C 302.667,368.5 303.333,368.5 304,372.5C 308.345,371.813 312.511,371.813 316.5,372.5C 319.702,371.873 322.869,371.206 326,370.5C 328.022,371.991 329.688,371.658 331,369.5C 331.981,372.689 333.314,373.022 335,370.5C 338.129,371.434 341.463,371.434 345,370.5C 345.689,371.357 346.522,372.023 347.5,372.5C 348.541,370.009 349.374,370.009 350,372.5C 350.667,369.833 351.333,369.833 352,372.5C 354.198,370.625 356.031,370.625 357.5,372.5C 358.5,371.833 359.5,371.167 360.5,370.5C 361.833,371.833 363.167,371.833 364.5,370.5C 365.478,370.977 366.311,371.643 367,372.5C 368.889,371.911 370.889,371.577 373,371.5C 374.779,374.276 375.779,373.943 376,370.5C 376.689,371.357 377.522,372.023 378.5,372.5C 388.141,372.193 397.974,372.193 408,372.5C 408.5,372.333 409,372.167 409.5,372C 408.549,371.282 408.383,370.449 409,369.5C 410.154,370.743 411.488,371.743 413,372.5C 415.055,372.848 417.055,372.181 419,370.5C 420.923,371.316 422.923,371.983 425,372.5C 427.205,372.088 429.538,372.088 432,372.5C 432.691,370.109 433.691,370.109 435,372.5C 436,371.167 437,371.167 438,372.5C 439.309,370.109 440.309,370.109 441,372.5C 442.299,372.034 443.799,372.034 445.5,372.5C 445.351,371.448 445.517,370.448 446,369.5C 446.667,370.833 447.667,371.833 449,372.5C 452.68,371.862 456.514,371.862 460.5,372.5C 461.5,371.833 462.5,371.167 463.5,370.5C 468.443,372.402 473.109,373.069 477.5,372.5C 478.994,372.291 480.161,371.624 481,370.5C 482.101,372.394 483.434,373.061 485,372.5C 487.198,370.625 489.031,370.625 490.5,372.5C 491.5,371.167 492.5,371.167 493.5,372.5C 494.682,370.355 496.182,370.355 498,372.5C 499.482,370.219 501.149,370.219 503,372.5C 505.879,371.289 508.713,371.289 511.5,372.5C 512.167,371.833 512.833,371.167 513.5,370.5C 513.833,371.167 514.167,371.833 514.5,372.5C 516.941,371.673 519.107,371.673 521,372.5C 521.875,370.487 523.209,370.487 525,372.5C 528.11,372.056 531.444,372.056 535,372.5C 535.667,371.833 536.333,371.167 537,370.5C 538.113,371.711 539.28,371.711 540.5,370.5C 541.5,371.167 542.5,371.833 543.5,372.5C 544.541,370.009 545.374,370.009 546,372.5C 546.667,369.833 547.333,369.833 548,372.5C 549.537,372.087 551.204,372.087 553,372.5C 554.261,372.241 555.261,371.574 556,370.5C 556.333,371.167 556.667,371.833 557,372.5C 558.333,371.167 559.667,371.167 561,372.5C 562.309,370.109 563.309,370.109 564,372.5C 565.525,372.112 567.192,372.112 569,372.5C 570.314,371.687 571.481,370.687 572.5,369.5C 573.696,369.846 573.696,370.346 572.5,371C 573.784,371.684 574.951,371.517 576,370.5C 576.333,371.167 576.667,371.833 577,372.5C 579.355,371.869 581.522,371.869 583.5,372.5C 584.5,371.833 585.5,371.167 586.5,370.5C 588.611,373.044 590.778,373.044 593,370.5C 593.333,371.167 593.667,371.833 594,372.5C 600.643,371.59 606.643,371.59 612,372.5C 613.667,371.833 615.333,371.167 617,370.5C 618.779,373.276 619.779,372.943 620,369.5C 621.333,373.5 622.667,373.5 624,369.5C 624.483,370.448 624.649,371.448 624.5,372.5C 628.447,371.66 632.28,371.326 636,371.5C 637,372.167 638,372.833 639,373.5C 640.797,371.844 642.964,370.844 645.5,370.5C 646.192,371.025 646.692,371.692 647,372.5C 647.807,368.551 648.307,368.551 648.5,372.5C 650.144,372.714 651.644,372.38 653,371.5C 653.333,372.167 653.667,372.833 654,373.5C 654.779,372.272 655.779,371.272 657,370.5C 658.73,371.649 660.396,371.649 662,370.5C 662.519,371.516 663.353,372.182 664.5,372.5C 665.955,371.61 667.289,371.61 668.5,372.5C 669.167,371.833 669.833,371.167 670.5,370.5C 672.548,371.083 674.381,371.083 676,370.5C 676.667,371.167 677.333,371.833 678,372.5C 677.383,370.905 677.716,369.572 679,368.5C 681.626,372.117 684.793,372.784 688.5,370.5C 690.809,371.933 692.309,371.266 693,368.5C 695.691,369.044 698.357,370.377 701,372.5C 701.333,371.5 701.667,370.5 702,369.5C 705.253,366.662 706.253,367.329 705,371.5C 707,370.833 709,370.167 711,369.5C 712.518,370.163 713.685,371.163 714.5,372.5 Z"/></g>
<g><path style="opacity:0.51" fill="#cf5f00" d="M 139.5,370.5 C 141.761,371.252 143.927,372.252 146,373.5C 150.839,371.887 155.672,371.554 160.5,372.5C 160.082,373.222 159.416,373.722 158.5,374C 340.167,374.667 521.833,374.667 703.5,374C 707.356,373.823 711.023,373.323 714.5,372.5C 719.813,371.902 725.146,371.569 730.5,371.5C 722.837,374.111 714.837,375.444 706.5,375.5C 518.793,375.831 331.127,375.498 143.5,374.5C 141.833,373.5 140.5,372.167 139.5,370.5 Z"/></g>
<g><path style="opacity:0.051" fill="#4d2600" d="M 143.5,374.5 C 331.127,375.498 518.793,375.831 706.5,375.5C 519.334,376.666 332,376.833 144.5,376C 143.944,375.617 143.611,375.117 143.5,374.5 Z"/></g>
</svg>
